#!OML:ASF H:\BreakDance\Project 1\Capture day 1\Session 1\Male.ASF
:FULLY-SPECIFIED
:DEGREES
920
root -8.70678 16.1623 0.155315 -116.07 -78.4033 301.583
lowerback -5.60733 -4.85177 -6.5627
upperback -7.03449 -5.90439 -3.50626
thorax -3.8991 -2.52654 -0.153509
lowerneck -17.0133 0.344108 -1.46353
upperneck -25.6416 0.127733 -1.79813
head -5.21234 -0.222364 -0.286521
rclavicle 5.99087e-014 -7.35503e-014
rhumerus 73.829 -45.4543 -43.8977
rradius 50.6105
rwrist -10.6226
rhand -55.2048 -62.7292
rfingers 7.12502
rthumb -27.576 -269.271
lclavicle 5.99087e-014 -7.35503e-014
lhumerus 64.465 27.7216 30.0912
lradius 51.43
lwrist 24.0399
lhand -56.7888 114.686
lfingers 7.12502
lthumb -29.0898 -86.9377
rfemur -45.6787 -10.3938 9.83792
rtibia 10.3284
rfoot 28.003 0.022254
rtoes -14.0651
lfemur 51.4403 -2.31459 -3.2546
ltibia 38.5025
lfoot 39.1766 1.48013
ltoes -21.0116
921
root -8.71473 16.2021 0.177476 -118.219 -78.3344 303.604
lowerback -5.77391 -4.77149 -6.42588
upperback -7.09225 -5.79311 -3.47804
thorax -3.88139 -2.47849 -0.20531
lowerneck -16.8791 0.340085 -1.41383
upperneck -25.8878 0.0944689 -1.83654
head -5.31164 -0.245794 -0.306962
rclavicle -5.11125e-014 -2.45499e-014
rhumerus 73.4487 -45.1155 -43.734
rradius 50.5584
rwrist -10.5266
rhand -54.9881 -62.905
rfingers 7.12502
rthumb -27.3688 -269.062
lclavicle -5.11125e-014 -2.45499e-014
lhumerus 64.2358 27.4541 29.8972
lradius 51.51
lwrist 23.9799
lhand -56.7219 114.666
lfingers 7.12502
lthumb -29.0259 -86.9067
rfemur -44.4135 -9.52279 9.8786
rtibia 11.3566
rfoot 27.9609 -0.305694
rtoes -13.1231
lfemur 50.177 -1.65022 -3.02761
ltibia 40.2074
lfoot 37.5983 0.552562
ltoes -21.6022
922
root -8.72285 16.2495 0.200606 -120.463 -78.2578 305.74
lowerback -5.94514 -4.69125 -6.25962
upperback -7.16946 -5.68363 -3.44155
thorax -3.88305 -2.43144 -0.264094
lowerneck -16.7816 0.319505 -1.36378
upperneck -26.0676 0.037522 -1.86666
head -5.38439 -0.281824 -0.324909
rclavicle 2.74323e-014 3.05134e-014
rhumerus 73.114 -44.7512 -43.5707
rradius 50.4095
rwrist -10.4545
rhand -54.7559 -63.0645
rfingers 7.12502
rthumb -27.1467 -268.868
lclavicle 2.74323e-014 3.05134e-014
lhumerus 64.077 27.1992 29.8215
lradius 51.5651
lwrist 23.8597
lhand -56.6636 114.496
lfingers 7.12502
lthumb -28.9702 -86.7275
rfemur -43.1808 -8.59888 9.98727
rtibia 12.5303
rfoot 27.7647 -0.7403
rtoes -11.9633
lfemur 48.9978 -0.902402 -2.79944
ltibia 41.4548
lfoot 35.808 -0.292373
ltoes -22.7038
923
root -8.73051 16.305 0.224988 -122.839 -78.1709 308.043
lowerback -6.1813 -4.61124 -6.04242
upperback -7.25606 -5.57031 -3.40211
thorax -3.86235 -2.38491 -0.35181
lowerneck -16.7336 0.29921 -1.28691
upperneck -26.1693 -0.0227461 -1.90162
head -5.42453 -0.321479 -0.349108
rclavicle -9.97402e-014 4.08502e-014
rhumerus 72.844 -44.368 -43.4356
rradius 50.1676
rwrist -10.393
rhand -54.5325 -63.2731
rfingers 7.12502
rthumb -26.933 -268.626
lclavicle -9.97402e-014 4.08502e-014
lhumerus 63.9786 26.9694 29.8169
lradius 51.5845
lwrist 23.6908
lhand -56.6176 114.218
lfingers 7.12502
lthumb -28.9263 -86.4416
rfemur -42.0186 -7.61987 10.1706
rtibia 13.8655
rfoot 27.3951 -1.2158
rtoes -10.7795
lfemur 47.9119 -0.0818913 -2.59858
ltibia 42.2292
lfoot 33.7761 -0.849009
ltoes -23.8086
924
root -8.73841 16.3695 0.250704 -125.359 -78.0558 310.538
lowerback -6.48661 -4.53068 -5.78577
upperback -7.35157 -5.45218 -3.35537
thorax -3.81492 -2.33791 -0.45781
lowerneck -16.7554 0.295698 -1.18535
upperneck -26.1803 -0.0614652 -1.95137
head -5.42484 -0.350677 -0.382509
rclavicle -1.43547e-013 -5.06901e-014
rhumerus 72.6716 -43.9624 -43.352
rradius 49.8294
rwrist -10.3188
rhand -54.3374 -63.5766
rfingers 7.12502
rthumb -26.7463 -268.294
lclavicle -1.43547e-013 -5.06901e-014
lhumerus 63.9178 26.7796 29.8373
lradius 51.5495
lwrist 23.489
lhand -56.5871 113.925
lfingers 7.12502
lthumb -28.8972 -86.1438
rfemur -40.9486 -6.58065 10.4218
rtibia 15.3553
rfoot 26.8511 -1.67891
rtoes -9.78958
lfemur 46.9013 0.798486 -2.46685
ltibia 42.5495
lfoot 31.6078 -0.945271
ltoes -24.5075
925
root -8.74859 16.4436 0.277411 -127.921 -77.8708 313.116
lowerback -6.82341 -4.44596 -5.54332
upperback -7.4541 -5.32732 -3.30366
thorax -3.75556 -2.287 -0.552242
lowerneck -16.8526 0.316074 -1.07954
upperneck -26.1222 -0.0645144 -2.01555
head -5.39175 -0.36034 -0.421494
rclavicle 1.32962e-013 1.98785e-016
rhumerus 72.6216 -43.5464 -43.3207
rradius 49.3868
rwrist -10.2125
rhand -54.1871 -64.0433
rfingers 7.12502
rthumb -26.6024 -267.805
lclavicle 1.32962e-013 1.98785e-016
lhumerus 63.8955 26.6455 29.8691
lradius 51.4406
lwrist 23.2697
lhand -56.5604 113.673
lfingers 7.12502
lthumb -28.8717 -85.8871
rfemur -39.9703 -5.48284 10.6981
rtibia 16.9804
rfoot 26.1481 -2.12656
rtoes -9.05328
lfemur 45.9555 1.72107 -2.46905
ltibia 42.4509
lfoot 29.3724 -0.594958
ltoes -24.766
926
root -8.7624 16.5274 0.305148 -130.382 -77.582 315.609
lowerback -7.13956 -4.35282 -5.35235
upperback -7.56237 -5.19386 -3.26049
thorax -3.71032 -2.22966 -0.624707
lowerneck -16.9961 0.360742 -0.984177
upperneck -26.0415 -0.0286612 -2.08848
head -5.34467 -0.34785 -0.461537
rclavicle -2.62098e-013 -5.83433e-014
rhumerus 72.6921 -43.1293 -43.3296
rradius 48.8308
rwrist -10.0688
rhand -54.0604 -64.6132
rfingers 7.12502
rthumb -26.4812 -267.217
lclavicle -2.62098e-013 -5.83433e-014
lhumerus 63.9155 26.5687 29.8967
lradius 51.247
lwrist 23.0444
lhand -56.5346 113.481
lfingers 7.12502
lthumb -28.847 -85.6913
rfemur -39.0602 -4.33434 10.949
rtibia 18.7221
rfoot 25.3004 -2.59188
rtoes -8.3423
lfemur 45.0485 2.66144 -2.66011
ltibia 42.0082
lfoot 27.145 0.086535
ltoes -24.5328
927
root -8.78141 16.6216 0.334447 -132.572 -77.1708 317.82
lowerback -7.3836 -4.24973 -5.23883
upperback -7.67382 -5.05278 -3.24402
thorax -3.70479 -2.16541 -0.676283
lowerneck -17.1594 0.415486 -0.904779
upperneck -25.9884 0.0257632 -2.1585
head -5.304 -0.324895 -0.497759
rclavicle 6.44062e-014 4.29375e-014
rhumerus 72.8609 -42.7262 -43.356
rradius 48.1602
rwrist -9.90077
rhand -53.9325 -65.1415
rfingers 7.12502
rthumb -26.3587 -266.67
lclavicle 6.44062e-014 4.29375e-014
lhumerus 63.985 26.5439 29.908
lradius 50.9617
lwrist 22.82
lhand -56.5276 113.34
lfingers 7.12502
lthumb -28.8403 -85.5485
rfemur -38.196 -3.15193 11.1257
rtibia 20.5681
rfoot 24.3552 -3.06276
rtoes -7.58629
lfemur 44.1713 3.5907 -3.08168
ltibia 41.2872
lfoot 24.9919 0.905182
ltoes -24.1444
